<svg xmlns="http://www.w3.org/2000/svg" viewBox="0 0 760 260" role="img" aria-labelledby="title desc">
  <title id="title">NyayaSetu logo</title>
  <desc id="desc">A gold and blue legal logo with scales of justice, an open book, a bridge, and the NyayaSetu wordmark.</desc>
  <defs>
    <linearGradient id="gold" x1="0" x2="1" y1="0" y2="1">
      <stop offset="0" stop-color="#ffe27a"/>
      <stop offset="0.45" stop-color="#f4bd3f"/>
      <stop offset="1" stop-color="#b98022"/>
    </linearGradient>
    <linearGradient id="blue" x1="0" x2="1" y1="0" y2="1">
      <stop offset="0" stop-color="#2f83cb"/>
      <stop offset="1" stop-color="#0b345d"/>
    </linearGradient>
    <filter id="softShadow" x="-10%" y="-20%" width="120%" height="140%">
      <feDropShadow dx="0" dy="4" stdDeviation="4" flood-color="#000000" flood-opacity="0.38"/>
    </filter>
  </defs>

  <rect width="760" height="260" rx="18" fill="#020304"/>

  <g filter="url(#softShadow)">
    <path d="M282 102c18-47 74-76 124-63 35 9 62 31 77 63Z" fill="url(#gold)"/>
    <path d="M380 18l6 52h-12Z" fill="url(#gold)"/>
    <path d="M323 36l24 49-15 4Z" fill="url(#gold)"/>
    <path d="M438 36l-24 49 15 4Z" fill="url(#gold)"/>
    <path d="M274 63l38 37-13 9Z" fill="url(#gold)"/>
    <path d="M486 63l-38 37 13 9Z" fill="url(#gold)"/>
    <path d="M246 96l49 22-9 12Z" fill="url(#gold)"/>
    <path d="M514 96l-49 22 9 12Z" fill="url(#gold)"/>

    <path d="M236 88c58-12 99 5 144 31 45-26 86-43 144-31l12 81c-57-17-103-8-156 19-53-27-99-36-156-19Z" fill="#fff9e8" stroke="#082a52" stroke-width="7"/>
    <path d="M380 119c-44-29-85-42-144-31l-12 81c57-17 103-8 156 19Z" fill="#fffdf4"/>
    <path d="M380 119c44-29 85-42 144-31l12 81c-57-17-103-8-156 19Z" fill="#fff7df"/>
    <g stroke="#d8ccb1" stroke-width="7" stroke-linecap="round">
      <path d="M262 115c27-3 55 2 84 16"/>
      <path d="M257 140c32-3 63 4 94 20"/>
      <path d="M502 115c-27-3-55 2-84 16"/>
      <path d="M507 140c-32-3-63 4-94 20"/>
    </g>

    <path d="M159 171c58-42 129-38 221-10 92-28 163-32 221 10" fill="none" stroke="url(#gold)" stroke-width="13" stroke-linecap="round"/>
    <path d="M168 171h108m208 0h108" stroke="#ffd45d" stroke-width="7" stroke-linecap="round"/>
    <g fill="url(#gold)" stroke="#8e621d" stroke-width="4">
      <path d="M170 153h26v55h-26z"/>
      <path d="M564 153h26v55h-26z"/>
      <path d="M204 171h20v38h-20z"/>
      <path d="M536 171h20v38h-20z"/>
    </g>

    <path d="M232 210c48-24 98-29 148-17 50-12 100-7 148 17-46 13-96 15-148 2-52 13-102 11-148-2Z" fill="url(#blue)" stroke="#041b34" stroke-width="6"/>

    <g stroke="#082a52" stroke-width="7" stroke-linecap="round" stroke-linejoin="round">
      <path d="M300 88h160" stroke="url(#gold)"/>
      <path d="M380 65c-13 17-21 31-21 45h42c0-14-8-28-21-45Z" fill="url(#gold)"/>
      <path d="M380 92v88" stroke="url(#gold)"/>
      <path d="M348 180h64" stroke="url(#gold)"/>
      <path d="M335 197h90" stroke="url(#gold)"/>
      <path d="M320 213h120" stroke="url(#gold)"/>
      <path d="M300 88c-9 16-24 22-44 22"/>
      <path d="M460 88c9 16 24 22 44 22"/>
      <path d="M256 110l-31 58h62Z" fill="none"/>
      <path d="M504 110l-31 58h62Z" fill="none"/>
      <path d="M215 168h82"/>
      <path d="M463 168h82"/>
    </g>
    <path d="M225 168c7 20 55 20 62 0Z" fill="url(#gold)" stroke="#8e621d" stroke-width="4"/>
    <path d="M473 168c7 20 55 20 62 0Z" fill="url(#gold)" stroke="#8e621d" stroke-width="4"/>
  </g>

  <g font-family="Georgia, 'Times New Roman', serif" font-weight="800" filter="url(#softShadow)">
    <text x="118" y="247" fill="#f9fbff" font-size="78">Nyaya</text>
    <text x="384" y="247" fill="#f5c84d" font-size="78">Setu</text>
  </g>
</svg>
